<svg version="1.0" xmlns="http://www.w3.org/2000/svg"
 width="1367.000000pt" height="215.000000pt" viewBox="0 0 1367.000000 215.000000"
 preserveAspectRatio="xMidYMid meet">

<g transform="translate(0.000000,215.000000) scale(0.100000,-0.100000)" 
fill="#55595b" stroke="none">
<path d="M8499 2140 c-191 -22 -317 -78 -430 -189 -122 -122 -172 -250 -172
-441 0 -181 48 -305 157 -408 107 -100 202 -140 512 -216 100 -24 206 -56 237
-70 184 -88 179 -272 -10 -348 -51 -20 -75 -23 -208 -23 -126 0 -162 4 -228
23 -89 25 -180 69 -250 118 -26 19 -51 34 -55 34 -9 0 -212 -341 -212 -356 0
-12 87 -69 170 -111 246 -125 621 -166 885 -96 33 8 102 35 154 60 162 77 283
219 326 383 21 78 24 241 6 320 -45 191 -182 335 -396 415 -38 15 -161 49
-272 76 -202 48 -267 72 -311 113 -68 61 -70 160 -5 228 108 113 464 99 674
-26 l59 -35 14 22 c8 12 57 94 110 182 l96 159 -48 30 c-106 66 -239 114 -392
140 -111 19 -315 27 -411 16z"/>
<path d="M2362 2119 c-178 -16 -358 -78 -501 -174 -92 -60 -225 -203 -282
-301 -104 -177 -142 -326 -143 -554 0 -265 59 -461 196 -648 242 -328 715
-476 1154 -361 358 94 613 350 711 714 25 92 27 115 27 290 0 174 -3 198 -26
287 -137 507 -578 797 -1136 747z m253 -444 c216 -46 373 -197 432 -416 23
-87 23 -262 0 -349 -30 -111 -74 -188 -151 -266 -122 -121 -261 -171 -451
-161 -55 4 -121 13 -146 21 -253 80 -399 293 -399 580 0 122 19 207 67 305
112 225 378 343 648 286z"/>
<path d="M12760 2119 c-480 -42 -834 -365 -915 -833 -19 -113 -19 -299 0 -409
20 -116 74 -264 132 -361 65 -108 203 -247 313 -314 411 -252 999 -199 1326
118 30 29 53 56 52 59 -3 7 -284 269 -310 290 -16 12 -24 8 -70 -34 -109 -98
-223 -144 -374 -152 -285 -16 -505 130 -591 391 -23 71 -26 97 -26 211 0 114
3 140 26 211 67 201 217 337 419 378 201 41 403 -9 538 -134 30 -27 57 -49 61
-48 4 2 80 70 168 153 l161 149 -47 49 c-141 143 -386 255 -596 272 -148 12
-174 12 -267 4z"/>
<path d="M0 1085 l0 -1015 635 0 635 0 0 210 0 210 -410 0 -410 0 0 805 0 805
-225 0 -225 0 0 -1015z"/>
<path d="M3690 2090 c0 -7 613 -1773 690 -1988 l12 -32 255 2 256 3 353 1005
c194 553 354 1008 354 1013 0 4 -102 6 -226 5 l-226 -3 -246 -733 c-142 -424
-249 -727 -253 -720 -5 7 -117 338 -250 735 l-243 723 -238 0 c-149 0 -238 -4
-238 -10z"/>
<path d="M6000 1085 l0 -1015 715 0 715 0 0 210 0 210 -490 0 -490 0 0 595 0
595 475 0 475 0 0 210 0 210 -700 0 -700 0 0 -1015z"/>
<path d="M10002 1103 c-210 -549 -385 -1006 -388 -1015 -6 -17 9 -18 223 -18
l229 0 78 215 79 215 401 0 401 0 79 -215 79 -215 244 0 c192 0 244 3 241 13
-3 6 -176 463 -384 1014 l-379 1003 -260 0 -260 0 -383 -997z m883 -195 c7
-17 -10 -18 -260 -18 -152 0 -265 4 -263 9 2 5 62 164 133 353 l130 345 126
-336 c70 -185 130 -344 134 -353z"/>
<path d="M6800 1090 l0 -250 215 0 215 0 0 250 0 250 -215 0 -215 0 0 -250z"/>
</g>
</svg>
